<svg version="1.1" xmlns="http://www.w3.org/2000/svg" viewBox="0 0 79.75151912866511 98.22564406927017" width="79.75151912866511" height="98.22564406927017" filter="invert(93%) hue-rotate(180deg)">
  <!-- svg-source:excalidraw -->
  
  <defs>
    <style class="style-fonts">
      @font-face {
        font-family: "Virgil";
        src: url("https://excalidraw.com/Virgil.woff2");
      }
      @font-face {
        font-family: "Cascadia";
        src: url("https://excalidraw.com/Cascadia.woff2");
      }
    </style>
    
  </defs>
  <g stroke-linecap="round"><g transform="translate(55.43677726847807 22.835304287475594) rotate(493.64756525234026 5.776030295369424 6.290744457471476)"><path d="M0 0 C1.93 2.1, 9.63 10.48, 11.55 12.58 M0 0 C1.93 2.1, 9.63 10.48, 11.55 12.58" stroke="#0b7285" stroke-width="1" fill="none"></path></g></g><mask></mask><g stroke-linecap="round"><g transform="translate(46.74578067953178 26.641825753306932) rotate(493.64756525234026 6.37361047401123 -5.712979161097422)"><path d="M0 0 C2.12 -1.9, 10.62 -9.52, 12.75 -11.43 M0 0 C2.12 -1.9, 10.62 -9.52, 12.75 -11.43" stroke="#0b7285" stroke-width="1" fill="none"></path></g></g><mask></mask><g stroke-linecap="round"><g transform="translate(60.834269330252596 32.457480978080696) rotate(493.64756525234026 0.5625926413349589 -11.63859057174227)"><path d="M0 0 C0.19 -3.88, 0.94 -19.4, 1.13 -23.28 M0 0 C0.19 -3.88, 0.94 -19.4, 1.13 -23.28" stroke="#0b7285" stroke-width="1" fill="none"></path></g></g><mask></mask><g stroke-linecap="round"><g transform="translate(47.241221812325534 33.52548664884404) rotate(582.4990973274398 5.776030295369424 6.290744457471476)"><path d="M0 0 C1.93 2.1, 9.63 10.48, 11.55 12.58 M0 0 C1.93 2.1, 9.63 10.48, 11.55 12.58" stroke="#087f5b" stroke-width="1" fill="none"></path></g></g><mask></mask><g stroke-linecap="round"><g transform="translate(54.67697909036917 37.27312150635686) rotate(582.4990973274398 6.37361047401123 -5.712979161097422)"><path d="M0 0 C2.12 -1.9, 10.62 -9.52, 12.75 -11.43 M0 0 C2.12 -1.9, 10.62 -9.52, 12.75 -11.43" stroke="#087f5b" stroke-width="1" fill="none"></path></g></g><mask></mask><g stroke-linecap="round"><g transform="translate(60.76383805992998 51.472337039365414) rotate(582.4990973274398 0.5625926413349589 -11.63859057174227)"><path d="M0 0 C0.19 -3.88, 0.94 -19.4, 1.13 -23.28 M0 0 C0.19 -3.88, 0.94 -19.4, 1.13 -23.28" stroke="#087f5b" stroke-width="1" fill="none"></path></g></g><mask></mask><g stroke-linecap="round"><g transform="translate(54.77596245733241 62.70446455991987) rotate(493.64756525234026 5.776030295369424 6.290744457471476)"><path d="M0 0 C1.93 2.1, 9.63 10.48, 11.55 12.58 M0 0 C1.93 2.1, 9.63 10.48, 11.55 12.58" stroke="#0b7285" stroke-width="1" fill="none"></path></g></g><mask></mask><g stroke-linecap="round"><g transform="translate(46.08496586838635 66.51098602575121) rotate(493.64756525234026 6.37361047401123 -5.712979161097394)"><path d="M0 0 C2.12 -1.9, 10.62 -9.52, 12.75 -11.43 M0 0 C2.12 -1.9, 10.62 -9.52, 12.75 -11.43" stroke="#0b7285" stroke-width="1" fill="none"></path></g></g><mask></mask><g stroke-linecap="round"><g transform="translate(60.17345451910694 72.32664125052497) rotate(493.64756525234026 0.5625926413349589 -11.63859057174227)"><path d="M0 0 C0.19 -3.88, 0.94 -19.4, 1.13 -23.28 M0 0 C0.19 -3.88, 0.94 -19.4, 1.13 -23.28" stroke="#0b7285" stroke-width="1" fill="none"></path></g></g><mask></mask><g stroke-linecap="round"><g transform="translate(46.58040700117988 73.39464692128877) rotate(582.4990973274398 5.776030295369424 6.290744457471476)"><path d="M0 0 C1.93 2.1, 9.63 10.48, 11.55 12.58 M0 0 C1.93 2.1, 9.63 10.48, 11.55 12.58" stroke="#0b7285" stroke-width="1" fill="none"></path></g></g><mask></mask><g stroke-linecap="round"><g transform="translate(54.01616427922352 77.14228177880113) rotate(582.4990973274398 6.37361047401123 -5.712979161097394)"><path d="M0 0 C2.12 -1.9, 10.62 -9.52, 12.75 -11.43 M0 0 C2.12 -1.9, 10.62 -9.52, 12.75 -11.43" stroke="#0b7285" stroke-width="1" fill="none"></path></g></g><mask></mask><g stroke-linecap="round"><g transform="translate(60.103023248784325 91.34149731180969) rotate(582.4990973274398 0.5625926413349589 -11.63859057174227)"><path d="M0 0 C0.19 -3.88, 0.94 -19.4, 1.13 -23.28 M0 0 C0.19 -3.88, 0.94 -19.4, 1.13 -23.28" stroke="#0b7285" stroke-width="1" fill="none"></path></g></g><mask></mask><g stroke-linecap="round"><g transform="translate(13.033416119281469 21.458068047242307) rotate(493.64756525234026 5.776030295369424 6.290744457471476)"><path d="M0 0 C1.93 2.1, 9.63 10.48, 11.55 12.58 M0 0 C1.93 2.1, 9.63 10.48, 11.55 12.58" stroke="#1864ab" stroke-width="1" fill="none"></path></g></g><mask></mask><g stroke-linecap="round"><g transform="translate(4.342419530335519 25.26458951307319) rotate(493.64756525234026 6.37361047401123 -5.712979161097422)"><path d="M0 0 C2.12 -1.9, 10.62 -9.52, 12.75 -11.43 M0 0 C2.12 -1.9, 10.62 -9.52, 12.75 -11.43" stroke="#1864ab" stroke-width="1" fill="none"></path></g></g><mask></mask><g stroke-linecap="round"><g transform="translate(18.430908181055997 31.080244737846954) rotate(493.64756525234026 0.5625926413349589 -11.63859057174227)"><path d="M0 0 C0.19 -3.88, 0.94 -19.4, 1.13 -23.28 M0 0 C0.19 -3.88, 0.94 -19.4, 1.13 -23.28" stroke="#1864ab" stroke-width="1" fill="none"></path></g></g><mask></mask><g stroke-linecap="round"><g transform="translate(12.813144515566478 60.8866851122566) rotate(493.64756525234026 5.776030295369424 6.290744457471476)"><path d="M0 0 C1.93 2.1, 9.63 10.48, 11.55 12.58 M0 0 C1.93 2.1, 9.63 10.48, 11.55 12.58" stroke="#1864ab" stroke-width="1" fill="none"></path></g></g><mask></mask><g stroke-linecap="round"><g transform="translate(4.1221479266203005 64.69320657808748) rotate(493.64756525234026 6.37361047401123 -5.712979161097422)"><path d="M0 0 C2.12 -1.9, 10.62 -9.52, 12.75 -11.43 M0 0 C2.12 -1.9, 10.62 -9.52, 12.75 -11.43" stroke="#1864ab" stroke-width="1" fill="none"></path></g></g><mask></mask><g stroke-linecap="round"><g transform="translate(18.210636577341006 70.50886180286125) rotate(493.64756525234026 0.5625926413349589 -11.63859057174227)"><path d="M0 0 C0.19 -3.88, 0.94 -19.4, 1.13 -23.28 M0 0 C0.19 -3.88, 0.94 -19.4, 1.13 -23.28" stroke="#1864ab" stroke-width="1" fill="none"></path></g></g><mask></mask><g stroke-linecap="round"><g transform="translate(34.90202380905032 24.031400305506907) rotate(673.3350059133367 5.776030295369424 6.290744457471476)"><path d="M0 0 C1.93 2.1, 9.63 10.48, 11.55 12.58 M0 0 C1.93 2.1, 9.63 10.48, 11.55 12.58" stroke="#1864ab" stroke-width="1" fill="none"></path></g></g><mask></mask><g stroke-linecap="round"><g transform="translate(42.442456684569265 44.18805320463122) rotate(673.3350059133367 6.37361047401123 -5.712979161097422)"><path d="M0 0 C2.12 -1.9, 10.62 -9.52, 12.75 -11.43 M0 0 C2.12 -1.9, 10.62 -9.52, 12.75 -11.43" stroke="#1864ab" stroke-width="1" fill="none"></path></g></g><mask></mask><g stroke-linecap="round"><g transform="translate(39.97672669277233 50.268774113591974) rotate(673.3350059133367 0.5625926413349589 -11.63859057174227)"><path d="M0 0 C0.19 -3.88, 0.94 -19.4, 1.13 -23.28 M0 0 C0.19 -3.88, 0.94 -19.4, 1.13 -23.28" stroke="#1864ab" stroke-width="1" fill="none"></path></g></g><mask></mask><g stroke-linecap="round"><g transform="translate(34.68175220533533 63.460017370520745) rotate(673.3350059133367 5.776030295369424 6.290744457471476)"><path d="M0 0 C1.93 2.1, 9.63 10.48, 11.55 12.58 M0 0 C1.93 2.1, 9.63 10.48, 11.55 12.58" stroke="#1864ab" stroke-width="1" fill="none"></path></g></g><mask></mask><g stroke-linecap="round"><g transform="translate(42.22218508085405 83.61667026964551) rotate(673.3350059133367 6.37361047401123 -5.712979161097394)"><path d="M0 0 C2.12 -1.9, 10.62 -9.52, 12.75 -11.43 M0 0 C2.12 -1.9, 10.62 -9.52, 12.75 -11.43" stroke="#1864ab" stroke-width="1" fill="none"></path></g></g><mask></mask><g stroke-linecap="round"><g transform="translate(39.75645508905734 89.69739117860581) rotate(673.3350059133367 0.5625926413349589 -11.63859057174227)"><path d="M0 0 C0.19 -3.88, 0.94 -19.4, 1.13 -23.28 M0 0 C0.19 -3.88, 0.94 -19.4, 1.13 -23.28" stroke="#1864ab" stroke-width="1" fill="none"></path></g></g><mask></mask><g stroke-linecap="round"><g transform="translate(25.628069268071954 12.270373151404385) rotate(582.9623238880304 5.776030295369424 6.290744457471476)"><path d="M0 0 C1.93 2.1, 9.63 10.48, 11.55 12.58 M0 0 C1.93 2.1, 9.63 10.48, 11.55 12.58" stroke="#087f5b" stroke-width="1" fill="none"></path></g></g><mask></mask><g stroke-linecap="round"><g transform="translate(33.13031233609456 16.08322528421428) rotate(582.9623238880304 6.37361047401123 -5.712979161097422)"><path d="M0 0 C2.12 -1.9, 10.62 -9.52, 12.75 -11.43 M0 0 C2.12 -1.9, 10.62 -9.52, 12.75 -11.43" stroke="#087f5b" stroke-width="1" fill="none"></path></g></g><mask></mask><g stroke-linecap="round"><g transform="translate(39.15027234753995 30.284400522920407) rotate(582.9623238880304 0.5625926413349589 -11.63859057174227)"><path d="M0 0 C0.19 -3.88, 0.94 -19.4, 1.13 -23.28 M0 0 C0.19 -3.88, 0.94 -19.4, 1.13 -23.28" stroke="#087f5b" stroke-width="1" fill="none"></path></g></g><mask></mask><g stroke-linecap="round"><g transform="translate(25.407797664356735 51.698990216418736) rotate(582.9623238880304 5.776030295369424 6.2907444574714475)"><path d="M0 0 C1.93 2.1, 9.63 10.48, 11.55 12.58 M0 0 C1.93 2.1, 9.63 10.48, 11.55 12.58" stroke="#1864ab" stroke-width="1" fill="none"></path></g></g><mask></mask><g stroke-linecap="round"><g transform="translate(32.91004073237957 55.51184234922812) rotate(582.9623238880304 6.37361047401123 -5.712979161097422)"><path d="M0 0 C2.12 -1.9, 10.62 -9.52, 12.75 -11.43 M0 0 C2.12 -1.9, 10.62 -9.52, 12.75 -11.43" stroke="#1864ab" stroke-width="1" fill="none"></path></g></g><mask></mask><g stroke-linecap="round"><g transform="translate(38.930000743824735 69.7130175879347) rotate(582.9623238880304 0.5625926413349589 -11.63859057174227)"><path d="M0 0 C0.19 -3.88, 0.94 -19.4, 1.13 -23.28 M0 0 C0.19 -3.88, 0.94 -19.4, 1.13 -23.28" stroke="#1864ab" stroke-width="1" fill="none"></path></g></g><mask></mask><g stroke-linecap="round"><g transform="translate(22.35767843133442 33.28766437271639) rotate(762.6497645490267 5.776030295369424 6.290744457471476)"><path d="M0 0 C1.93 2.1, 9.63 10.48, 11.55 12.58 M0 0 C1.93 2.1, 9.63 10.48, 11.55 12.58" stroke="#1864ab" stroke-width="1" fill="none"></path></g></g><mask></mask><g stroke-linecap="round"><g transform="translate(13.705078062533971 53.526323453058524) rotate(762.6497645490267 6.37361047401123 -5.712979161097422)"><path d="M0 0 C2.12 -1.9, 10.62 -9.52, 12.75 -11.43 M0 0 C2.12 -1.9, 10.62 -9.52, 12.75 -11.43" stroke="#1864ab" stroke-width="1" fill="none"></path></g></g><mask></mask><g stroke-linecap="round"><g transform="translate(19.262012279799706 51.177633985516024) rotate(762.6497645490267 0.5625926413349589 -11.63859057174227)"><path d="M0 0 C0.19 -3.88, 0.94 -19.4, 1.13 -23.28 M0 0 C0.19 -3.88, 0.94 -19.4, 1.13 -23.28" stroke="#1864ab" stroke-width="1" fill="none"></path></g></g><mask></mask><g stroke-linecap="round"><g transform="translate(22.137406827619202 72.71628143773069) rotate(762.6497645490267 5.776030295369424 6.290744457471476)"><path d="M0 0 C1.93 2.1, 9.63 10.48, 11.55 12.58 M0 0 C1.93 2.1, 9.63 10.48, 11.55 12.58" stroke="#364fc7" stroke-width="1" fill="none"></path></g></g><mask></mask><g stroke-linecap="round"><g transform="translate(13.48480645881898 92.95494051807282) rotate(762.6497645490267 6.37361047401123 -5.712979161097394)"><path d="M0 0 C2.12 -1.9, 10.62 -9.52, 12.75 -11.43 M0 0 C2.12 -1.9, 10.62 -9.52, 12.75 -11.43" stroke="#364fc7" stroke-width="1" fill="none"></path></g></g><mask></mask><g stroke-linecap="round"><g transform="translate(19.041740676084487 90.60625105053032) rotate(762.6497645490267 0.5625926413349589 -11.63859057174227)"><path d="M0 0 C0.19 -3.88, 0.94 -19.4, 1.13 -23.28 M0 0 C0.19 -3.88, 0.94 -19.4, 1.13 -23.28" stroke="#364fc7" stroke-width="1" fill="none"></path></g></g><mask></mask><g stroke-linecap="round"><g transform="translate(15.10984256734639 3.9777999051694337) rotate(674.3594370597 5.776030295369424 6.290744457471476)"><path d="M0 0 C1.93 2.1, 9.63 10.48, 11.55 12.58 M0 0 C1.93 2.1, 9.63 10.48, 11.55 12.58" stroke="#087f5b" stroke-width="1" fill="none"></path></g></g><mask></mask><g stroke-linecap="round"><g transform="translate(22.50321054894482 24.278647111089924) rotate(674.3594370597 6.37361047401123 -5.712979161097422)"><path d="M0 0 C2.12 -1.9, 10.62 -9.52, 12.75 -11.43 M0 0 C2.12 -1.9, 10.62 -9.52, 12.75 -11.43" stroke="#087f5b" stroke-width="1" fill="none"></path></g></g><mask></mask><g stroke-linecap="round"><g transform="translate(20.036030328962056 30.21136537356466) rotate(674.3594370597 0.5625926413349589 -11.63859057174227)"><path d="M0 0 C0.19 -3.88, 0.94 -19.4, 1.13 -23.28 M0 0 C0.19 -3.88, 0.94 -19.4, 1.13 -23.28" stroke="#087f5b" stroke-width="1" fill="none"></path></g></g><mask></mask><g stroke-linecap="round"><g transform="translate(4.843901974577648 31.295683047929344) rotate(943.3616363563864 5.776030295369424 6.290744457471476)"><path d="M0 0 C1.93 2.1, 9.63 10.48, 11.55 12.58 M0 0 C1.93 2.1, 9.63 10.48, 11.55 12.58" stroke="#1864ab" stroke-width="1" fill="none"></path></g></g><mask></mask><g stroke-linecap="round"><g transform="translate(12.40303265395903 34.944912278641425) rotate(943.3616363563864 6.37361047401123 -5.712979161097422)"><path d="M0 0 C2.12 -1.9, 10.62 -9.52, 12.75 -11.43 M0 0 C2.12 -1.9, 10.62 -9.52, 12.75 -11.43" stroke="#1864ab" stroke-width="1" fill="none"></path></g></g><mask></mask><g stroke-linecap="round"><g transform="translate(18.36531302771516 49.36761431663996) rotate(943.3616363563864 0.5625926413349589 -11.63859057174227)"><path d="M0 0 C0.19 -3.88, 0.94 -19.4, 1.13 -23.28 M0 0 C0.19 -3.88, 0.94 -19.4, 1.13 -23.28" stroke="#1864ab" stroke-width="1" fill="none"></path></g></g><mask></mask><g stroke-linecap="round"><g transform="translate(14.889570963631172 43.406416970183784) rotate(674.3594370597 5.776030295369424 6.2907444574714475)"><path d="M0 0 C1.93 2.1, 9.63 10.48, 11.55 12.58 M0 0 C1.93 2.1, 9.63 10.48, 11.55 12.58" stroke="#1864ab" stroke-width="1" fill="none"></path></g></g><mask></mask><g stroke-linecap="round"><g transform="translate(22.282938945229603 63.70726417610422) rotate(674.3594370597 6.37361047401123 -5.712979161097422)"><path d="M0 0 C2.12 -1.9, 10.62 -9.52, 12.75 -11.43 M0 0 C2.12 -1.9, 10.62 -9.52, 12.75 -11.43" stroke="#1864ab" stroke-width="1" fill="none"></path></g></g><mask></mask><g stroke-linecap="round"><g transform="translate(19.815758725247065 69.63998243857895) rotate(674.3594370597 0.5625926413349589 -11.63859057174227)"><path d="M0 0 C0.19 -3.88, 0.94 -19.4, 1.13 -23.28 M0 0 C0.19 -3.88, 0.94 -19.4, 1.13 -23.28" stroke="#1864ab" stroke-width="1" fill="none"></path></g></g><mask></mask><g stroke-linecap="round"><g transform="translate(32.920985960742314 41.5227355934872) rotate(854.0468777206966 5.776030295369424 6.290744457471476)"><path d="M0 0 C1.93 2.1, 9.63 10.48, 11.55 12.58 M0 0 C1.93 2.1, 9.63 10.48, 11.55 12.58" stroke="#1864ab" stroke-width="1" fill="none"></path></g></g><mask></mask><g stroke-linecap="round"><g transform="translate(24.2873143656617 45.27305100271184) rotate(854.0468777206966 6.37361047401123 -5.712979161097422)"><path d="M0 0 C2.12 -1.9, 10.62 -9.52, 12.75 -11.43 M0 0 C2.12 -1.9, 10.62 -9.52, 12.75 -11.43" stroke="#1864ab" stroke-width="1" fill="none"></path></g></g><mask></mask><g stroke-linecap="round"><g transform="translate(38.37636830643635 51.146396751551094) rotate(854.0468777206966 0.5625926413349589 -11.63859057174227)"><path d="M0 0 C0.19 -3.88, 0.94 -19.4, 1.13 -23.28 M0 0 C0.19 -3.88, 0.94 -19.4, 1.13 -23.28" stroke="#1864ab" stroke-width="1" fill="none"></path></g></g><mask></mask><g stroke-linecap="round"><g transform="translate(32.700714357027096 80.95135265850149) rotate(854.0468777206966 5.776030295369424 6.290744457471476)"><path d="M0 0 C1.93 2.1, 9.63 10.48, 11.55 12.58 M0 0 C1.93 2.1, 9.63 10.48, 11.55 12.58" stroke="#364fc7" stroke-width="1" fill="none"></path></g></g><mask></mask><g stroke-linecap="round"><g transform="translate(24.06704276194671 84.70166806772613) rotate(854.0468777206966 6.37361047401123 -5.712979161097394)"><path d="M0 0 C2.12 -1.9, 10.62 -9.52, 12.75 -11.43 M0 0 C2.12 -1.9, 10.62 -9.52, 12.75 -11.43" stroke="#364fc7" stroke-width="1" fill="none"></path></g></g><mask></mask><g stroke-linecap="round"><g transform="translate(38.15609670272136 90.57501381656539) rotate(854.0468777206966 0.5625926413349589 -11.63859057174227)"><path d="M0 0 C0.19 -3.88, 0.94 -19.4, 1.13 -23.28 M0 0 C0.19 -3.88, 0.94 -19.4, 1.13 -23.28" stroke="#364fc7" stroke-width="1" fill="none"></path></g></g><mask></mask><g stroke-linecap="round"><g transform="translate(43.131920163960444 14.137597007154966) rotate(763.67419569539 5.776030295369424 6.290744457471476)"><path d="M0 0 C1.93 2.1, 9.63 10.48, 11.55 12.58 M0 0 C1.93 2.1, 9.63 10.48, 11.55 12.58" stroke="#1864ab" stroke-width="1" fill="none"></path></g></g><mask></mask><g stroke-linecap="round"><g transform="translate(34.33337698792036 34.23092619328651) rotate(763.67419569539 6.37361047401123 -5.712979161097422)"><path d="M0 0 C2.12 -1.9, 10.62 -9.52, 12.75 -11.43 M0 0 C2.12 -1.9, 10.62 -9.52, 12.75 -11.43" stroke="#1864ab" stroke-width="1" fill="none"></path></g></g><mask></mask><g stroke-linecap="round"><g transform="translate(40.03828592312368 31.87901657355866) rotate(763.67419569539 0.5625926413349589 -11.63859057174227)"><path d="M0 0 C0.19 -3.88, 0.94 -19.4, 1.13 -23.28 M0 0 C0.19 -3.88, 0.94 -19.4, 1.13 -23.28" stroke="#1864ab" stroke-width="1" fill="none"></path></g></g><mask></mask><g stroke-linecap="round"><g transform="translate(42.911648560245226 53.566214072169316) rotate(763.67419569539 5.776030295369424 6.2907444574714475)"><path d="M0 0 C1.93 2.1, 9.63 10.48, 11.55 12.58 M0 0 C1.93 2.1, 9.63 10.48, 11.55 12.58" stroke="#1864ab" stroke-width="1" fill="none"></path></g></g><mask></mask><g stroke-linecap="round"><g transform="translate(34.11310538420514 73.6595432583008) rotate(763.67419569539 6.37361047401123 -5.712979161097394)"><path d="M0 0 C2.12 -1.9, 10.62 -9.52, 12.75 -11.43 M0 0 C2.12 -1.9, 10.62 -9.52, 12.75 -11.43" stroke="#1864ab" stroke-width="1" fill="none"></path></g></g><mask></mask><g stroke-linecap="round"><g transform="translate(39.818014319408235 71.30763363857295) rotate(763.67419569539 0.5625926413349589 -11.63859057174227)"><path d="M0 0 C0.19 -3.88, 0.94 -19.4, 1.13 -23.28 M0 0 C0.19 -3.88, 0.94 -19.4, 1.13 -23.28" stroke="#1864ab" stroke-width="1" fill="none"></path></g></g><mask></mask><g stroke-linecap="round"><g transform="translate(4.6236303708626565 70.94457171665863) rotate(943.3616363563864 5.776030295369424 6.290744457471476)"><path d="M0 0 C1.93 2.1, 9.63 10.48, 11.55 12.58 M0 0 C1.93 2.1, 9.63 10.48, 11.55 12.58" stroke="#1864ab" stroke-width="1" fill="none"></path></g></g><mask></mask><g stroke-linecap="round"><g transform="translate(12.182761050243585 74.81407255108616) rotate(943.3616363563864 6.37361047401123 -5.712979161097394)"><path d="M0 0 C2.12 -1.9, 10.62 -9.52, 12.75 -11.43 M0 0 C2.12 -1.9, 10.62 -9.52, 12.75 -11.43" stroke="#1864ab" stroke-width="1" fill="none"></path></g></g><mask></mask><g stroke-linecap="round"><g transform="translate(18.145041423999942 89.01650298536924) rotate(943.3616363563864 0.5625926413349589 -11.63859057174227)"><path d="M0 0 C0.19 -3.88, 0.94 -19.4, 1.13 -23.28 M0 0 C0.19 -3.88, 0.94 -19.4, 1.13 -23.28" stroke="#1864ab" stroke-width="1" fill="none"></path></g></g><mask></mask></svg>