<svg version="1.1" xmlns="http://www.w3.org/2000/svg" viewBox="0 0 225.61231890198042 130.92397655114632" width="225.61231890198042" height="130.92397655114632" filter="invert(93%) hue-rotate(180deg)">
  <!-- svg-source:excalidraw -->
  
  <defs>
    <style class="style-fonts">
      @font-face {
        font-family: "Virgil";
        src: url("https://excalidraw.com/Virgil.woff2");
      }
      @font-face {
        font-family: "Cascadia";
        src: url("https://excalidraw.com/Cascadia.woff2");
      }
    </style>
    
  </defs>
  <g transform="translate(21.43707275390625 75.1724811898182) rotate(0 93.8057632446289 22.875747680664062)"><text x="0" y="0" font-family="Virgil, Segoe UI Emoji" font-size="36.60119628906249px" fill="#1e1e1e" text-anchor="start" style="white-space: pre;" direction="ltr" dominant-baseline="text-before-edge">Concuerror</text></g><g stroke-linecap="round"><g transform="translate(54.62892605241393 46.74722556555088) rotate(0 60.82060384125208 -0.14769739580961527)"><path d="M-0.06 -0.31 C20.67 -0.15, 102.51 1.18, 123.2 1.27 M-1.55 -1.52 C19.08 -1.75, 101.13 -1.07, 121.95 -0.6" stroke="#1e1e1e" stroke-width="2" fill="none"></path></g></g><mask></mask><g stroke-linecap="round" transform="translate(177.884103417701 45.02474749095171) rotate(0 3.6593957014935086 3.388543992754961)"><path d="M4.08 -0.1 C4.95 -0.07, 5.94 -0.26, 6.62 0.34 C7.29 0.93, 8.14 2.67, 8.13 3.47 C8.12 4.27, 7.1 4.71, 6.57 5.15 C6.04 5.59, 5.82 5.75, 4.96 6.09 C4.09 6.43, 2.08 7.43, 1.37 7.18 C0.67 6.92, 0.89 5.35, 0.71 4.55 C0.54 3.74, 0.14 2.91, 0.32 2.35 C0.5 1.79, 1.23 1.5, 1.79 1.2 C2.35 0.9, 2.95 0.77, 3.67 0.56 C4.38 0.36, 6 0.15, 6.07 -0.01 M4.54 1.36 C5.54 1.39, 6.06 0.92, 6.55 1.25 C7.03 1.59, 7.39 2.73, 7.45 3.37 C7.51 4.01, 7.38 4.32, 6.88 5.1 C6.39 5.89, 5.47 7.77, 4.48 8.08 C3.49 8.39, 1.9 7.48, 0.97 6.95 C0.04 6.43, -0.99 5.76, -1.08 4.95 C-1.17 4.15, -0.08 2.74, 0.42 2.13 C0.92 1.51, 1.26 1.84, 1.92 1.26 C2.58 0.68, 4.11 -1.32, 4.4 -1.35 C4.7 -1.39, 3.89 0.69, 3.66 1.02" stroke="#1e1e1e" stroke-width="2" fill="none"></path></g><g stroke-linecap="round" transform="translate(46.604139079062634 43.10858278870995) rotate(0 3.6593957014934517 3.388543992754961)"><path d="M2.8 -0.54 C3.62 -0.74, 5.13 0.18, 5.81 0.52 C6.48 0.86, 6.53 1.02, 6.84 1.51 C7.15 2, 7.95 2.58, 7.69 3.46 C7.43 4.35, 5.91 6.27, 5.29 6.79 C4.67 7.31, 4.63 6.74, 3.98 6.58 C3.34 6.43, 2.04 6.2, 1.41 5.86 C0.78 5.51, 0.49 5.16, 0.19 4.53 C-0.11 3.9, -1.01 2.87, -0.4 2.07 C0.21 1.27, 3.3 0.21, 3.83 -0.26 C4.36 -0.74, 2.89 -0.75, 2.77 -0.78 M4.22 0.24 C4.9 0.07, 5.81 0.79, 6.37 1.21 C6.92 1.64, 7.51 1.89, 7.55 2.81 C7.59 3.73, 7.26 5.99, 6.59 6.72 C5.92 7.45, 4.5 7.18, 3.53 7.16 C2.55 7.15, 1.21 7.08, 0.73 6.64 C0.25 6.19, 0.69 5.07, 0.64 4.49 C0.59 3.92, 0.23 4.08, 0.44 3.2 C0.66 2.33, 1.4 -0.37, 1.92 -0.74 C2.45 -1.12, 3.42 0.77, 3.6 0.95 C3.78 1.13, 3.03 0.64, 3 0.35" stroke="#1e1e1e" stroke-width="2" fill="none"></path></g><g stroke-linecap="round" transform="translate(145.44407644944397 60.03577290395549) rotate(0 35.08412122626822 6.742903245714615)"><path d="M0.01 -0.24 C23.26 -0.98, 46.92 1.03, 70.11 -0.51 M0.76 0.41 C23.97 0.63, 48.25 0.61, 70.81 -0.93 M69.6 -1.18 C70.57 3.55, 70.52 9.78, 71.38 13.73 M70.28 -0.12 C70.14 4.89, 69.68 8.74, 69.54 13.56 M71.06 14 C45.96 13.17, 26.66 12.38, 0.36 12.81 M69.62 14.26 C53.79 13.14, 39.03 13.02, 0.94 14.04 M-0.38 12.84 C0.63 9.45, -0.45 3.38, 1.07 -0.68 M-0.58 13.59 C-0.56 9.31, 0.24 6.1, -0.39 -0.49" stroke="#1e1e1e" stroke-width="2" fill="none"></path></g><g stroke-linecap="round" transform="translate(12.63152072925402 58.915195666309785) rotate(0 40.61893870192989 6.846202046879256)"><path d="M26.28 0.18 C33.78 -0.54, 46.43 -0.86, 54.54 -0.2 C62.65 0.45, 70.49 2.79, 74.92 4.12 C79.35 5.44, 82.39 6.46, 81.11 7.77 C79.82 9.08, 73.88 10.87, 67.23 11.97 C60.58 13.06, 50.1 14.23, 41.21 14.33 C32.32 14.43, 20.5 13.68, 13.92 12.59 C7.33 11.49, 3.21 9.42, 1.69 7.76 C0.17 6.1, -0.4 4.02, 4.8 2.62 C10 1.21, 27.11 -0.33, 32.89 -0.68 C38.67 -1.04, 39.22 0.21, 39.47 0.49 M44.01 -0.24 C52.25 -0.02, 62.98 2.21, 68.97 3.37 C74.96 4.52, 79.32 5.44, 79.94 6.69 C80.56 7.94, 77.4 9.82, 72.71 10.88 C68.02 11.95, 59.9 12.61, 51.8 13.09 C43.71 13.57, 32.05 14.52, 24.14 13.75 C16.24 12.97, 8.23 9.71, 4.36 8.43 C0.49 7.15, -1.01 7.22, 0.93 6.08 C2.88 4.93, 9 2.75, 16.05 1.55 C23.1 0.35, 38.64 -0.85, 43.25 -1.12 C47.87 -1.39, 43.84 -0.58, 43.74 -0.08" stroke="#1e1e1e" stroke-width="2" fill="none"></path></g><g stroke-linecap="round" transform="translate(10 23.172999859529625) rotate(0 40.61893870192989 6.846202046879284)"><path d="M46.86 -0.52 C55.02 -0.24, 64.46 1.88, 70.25 3.04 C76.05 4.2, 81.22 5.11, 81.63 6.44 C82.04 7.77, 78.13 9.71, 72.7 11.01 C67.28 12.3, 57.77 13.8, 49.07 14.19 C40.36 14.57, 28.01 14.19, 20.48 13.33 C12.96 12.47, 7.04 10.62, 3.9 9.04 C0.75 7.46, -0.97 5.31, 1.62 3.84 C4.2 2.36, 10.89 0.74, 19.42 0.21 C27.95 -0.32, 46.17 0.52, 52.78 0.65 C59.39 0.79, 59.27 0.94, 59.07 1.01 M43.76 1.43 C51.82 1.58, 62.03 1.66, 68.01 2.48 C73.99 3.3, 78.59 5.05, 79.65 6.36 C80.7 7.68, 79 9.09, 74.35 10.38 C69.71 11.67, 60.13 13.89, 51.76 14.11 C43.39 14.33, 32.15 12.27, 24.12 11.7 C16.09 11.14, 7.55 11.78, 3.59 10.72 C-0.37 9.67, -1.8 7.16, 0.36 5.4 C2.52 3.63, 9.31 1.06, 16.56 0.13 C23.82 -0.81, 39.49 -0.42, 43.89 -0.22 C48.29 -0.02, 43.19 1.23, 42.96 1.32" stroke="#1e1e1e" stroke-width="2" fill="none"></path></g><g stroke-linecap="round"><g transform="translate(49.13906224316122 10.545663148045264) rotate(0 0.32123212033809523 5.625010207590208)"><path d="M-0.04 -0.3 C0.69 1.97, -0.51 6.21, 0.82 11.45 M0.37 -0.55 C0.36 4.28, 0 7.16, -0.17 11.8" stroke="#1e1e1e" stroke-width="2" fill="none"></path></g></g><mask></mask><g stroke-linecap="round"><g transform="translate(49.608610918014506 36.89780243039246) rotate(0 -0.05651094456402461 2.7703962920958816)"><path d="M0.26 -0.35 C-0.43 2.36, 0.15 3.73, -0.04 5.8 M0.13 0.29 C-0.11 1.72, -0.3 3.74, -0.37 5.89" stroke="#1e1e1e" stroke-width="2" fill="none"></path></g></g><mask></mask><g stroke-linecap="round"><g transform="translate(50.265163323954084 51.36262025634079) rotate(0 -0.2572996454065901 3.675500305789427)"><path d="M-0.46 0.53 C0.2 1.8, -0.09 3.81, -0.33 7.5 M-0.12 -0.15 C-0.37 1.53, -0.44 2.97, -0.31 7.37" stroke="#1e1e1e" stroke-width="2" fill="none"></path></g></g><mask></mask><g stroke-linecap="round"><g transform="translate(181.0136063092432 52.12147012932871) rotate(0 0.16722012624506988 2.9953094122663515)"><path d="M0.24 -0.11 C0.19 1.36, 0.31 3.18, -0.01 6.1 M-0.26 0.06 C-0.04 2.38, 0.51 4.94, 0.59 5.89" stroke="#1e1e1e" stroke-width="2" fill="none"></path></g></g><mask></mask><g stroke-linecap="round"><g transform="translate(48.45709228515625 96.0171085701893) rotate(0 9.9728361858634 -2.6860356088727713)"><path d="M0.2 -0.09 C3.51 3.59, 5.56 6.21, 9.96 7.14 M-0.47 0.09 C2.41 2.45, 4.58 3.97, 8.86 7.64 M10.69 6.07 C13.19 -0.95, 16.4 -5.32, 19.92 -12.95 M8.57 8.17 C12.11 0.62, 16.4 -7.53, 20.42 -13.54" stroke="#2f9e44" stroke-width="2" fill="none"></path></g></g><mask></mask><g stroke-linecap="round"><g transform="translate(50.23748779296875 75.63658488854867) rotate(0 1.2769859306447415 9.046566029436633)"><path d="M0.26 1.12 C-0.95 5.69, 3.12 9.18, 1.64 15.92 M0.31 0.79 C0.78 5.71, 1.46 11.3, 2.52 17.3" stroke="#1e1e1e" stroke-width="2" fill="none"></path></g></g><mask></mask><g stroke-linecap="round"><g transform="translate(181.2379150390625 72.50267375573617) rotate(0 -0.02402471256982608 10.3107829139189)"><path d="M-1.83 0.88 C2.39 5.02, 0.02 9.72, 1.78 17.95 M0.18 0.15 C0.6 6.32, 1.11 12.17, 1.34 20.47" stroke="#1e1e1e" stroke-width="2" fill="none"></path></g></g><mask></mask><g stroke-linecap="round"><g transform="translate(180.02709415180607 95.94512814305244) rotate(0 3.3357777846505314 4.599479360453245)"><path d="M1.12 -0.39 C1.79 2.34, 4.82 5.75, 6.62 9.59 M0.05 0.09 C2.62 3.48, 5.01 7.69, 6.03 9.39" stroke="#e03131" stroke-width="2" fill="none"></path></g></g><mask></mask><g stroke-linecap="round"><g transform="translate(178.42470428377487 105.43091464186057) rotate(0 5.503462250653456 -4.59874847066817)"><path d="M-0.58 -1.2 C3.75 -4.25, 7.27 -5.8, 11.59 -8.9 M0.11 -0.12 C3.21 -2.26, 6.01 -5.56, 9.7 -9.08" stroke="#e03131" stroke-width="2" fill="none"></path></g></g><mask></mask></svg>